M48
; DRILL file {KiCad (5.1.9)-1} date 12/02/22 18:00:48
; FORMAT={-:-/ absolute / inch / decimal}
; #@! TF.CreationDate,2022-12-02T18:00:48+01:00
; #@! TF.GenerationSoftware,Kicad,Pcbnew,(5.1.9)-1
; #@! TF.FileFunction,Plated,1,4,PTH
FMAT,2
INCH
T1C0.0157
T2C0.0256
T3C0.0394
%
G90
G05
T1
X2.244Y-2.3853
X2.3579Y-2.5139
X2.4608Y-2.4347
X2.465Y-2.205
X2.4707Y-2.6617
X2.4798Y-2.5321
X2.5012Y-2.3107
X2.5285Y-2.835
X2.54Y-2.205
X2.5413Y-2.2687
X2.545Y-1.905
X2.5502Y-2.7442
X2.568Y-2.0274
X2.6Y-2.96
X2.6Y-2.995
X2.6Y-3.035
X2.6056Y-2.1444
X2.6134Y-2.6926
X2.6245Y-2.2167
X2.635Y-2.525
X2.637Y-2.4827
X2.6419Y-2.1016
X2.6479Y-2.7116
X2.6546Y-2.3553
X2.6614Y-2.5542
X2.665Y-1.7381
X2.665Y-1.7775
X2.665Y-1.8169
X2.6806Y-2.5015
X2.6941Y-2.7068
X2.6944Y-2.3687
X2.7Y-1.62
X2.7Y-1.6594
X2.7Y-1.6987
X2.71Y-1.855
X2.7159Y-2.5243
X2.72Y-2.055
X2.7238Y-2.2267
X2.7295Y-2.8482
X2.7334Y-2.4825
X2.7338Y-2.7013
X2.7394Y-2.4202
X2.7562Y-1.9765
X2.7641Y-2.2147
X2.7731Y-2.3485
X2.805Y-2.525
X2.8185Y-2.3897
X2.82Y-2.43
X2.8205Y-2.2297
X2.8262Y-2.1871
X2.8306Y-2.3385
X2.8311Y-2.0636
X2.8346Y-2.6951
X2.85Y-2.0204
X2.8635Y-1.7507
X2.8639Y-2.2062
X2.87Y-2.845
X2.8853Y-2.2669
X2.9029Y-2.1479
X2.9033Y-2.1988
X2.9395Y-1.9195
X2.9433Y-2.0033
X2.9492Y-2.0425
X2.9515Y-1.6885
X2.9545Y-1.6105
X2.98Y-2.925
X2.9981Y-1.8213
X3.0327Y-2.8077
X3.0366Y-2.7009
X3.0475Y-2.0875
X3.0619Y-1.6264
X3.0782Y-1.8211
X3.0816Y-1.9678
X3.115Y-2.16
X3.1339Y-1.595
X3.145Y-2.595
X3.1477Y-2.5446
X3.1519Y-2.4446
X3.17Y-2.825
X3.1975Y-1.8341
X3.1983Y-2.9067
X3.215Y-2.825
X3.26Y-2.825
X3.275Y-2.02
X3.28Y-2.11
X3.2882Y-3.0118
X3.295Y-2.825
X3.3251Y-2.527
X3.3254Y-2.0532
X3.33Y-2.825
X3.3323Y-2.9727
X3.343Y-2.1231
T2
X2.5285Y-3.435
X2.5785Y-3.435
X2.6285Y-3.435
X2.6785Y-3.435
X2.7285Y-3.435
T3
X2.3045Y-1.2746
X2.3045Y-1.3746
X2.3045Y-1.4746
X2.3045Y-1.5746
X2.3045Y-1.6746
X2.3045Y-1.7746
X2.3045Y-1.8746
X2.3045Y-1.9746
X2.3045Y-2.0746
X2.3045Y-2.1746
X2.3045Y-2.2746
X2.3045Y-2.3746
X2.3045Y-2.4746
X2.3045Y-2.5746
X2.3045Y-2.6746
X2.3045Y-2.7746
X2.3045Y-2.8746
X2.3045Y-2.9746
X2.3045Y-3.0746
X2.3045Y-3.1746
X2.4045Y-1.2746
X2.4045Y-1.3746
X2.4045Y-1.4746
X2.4045Y-1.5746
X2.4045Y-1.6746
X2.4045Y-1.7746
X2.4045Y-1.8746
X2.4045Y-1.9746
X2.4045Y-2.0746
X2.4045Y-2.1746
X2.4045Y-2.2746
X2.4045Y-2.3746
X2.4045Y-2.4746
X2.4045Y-2.5746
X2.4045Y-2.6746
X2.4045Y-2.7746
X2.4045Y-2.8746
X2.4045Y-2.9746
X2.4045Y-3.0746
X2.4045Y-3.1746
X2.5709Y-1.0384
X2.5709Y-1.1384
X2.5709Y-1.3219
X2.5709Y-1.4219
X2.6709Y-1.0384
X2.6709Y-1.1384
X2.6709Y-1.3219
X2.6709Y-1.4219
X2.7709Y-1.0384
X2.7709Y-1.1384
X2.7709Y-1.3219
X2.7709Y-1.4219
X2.8709Y-1.0384
X2.8709Y-1.1384
X2.8709Y-1.3219
X2.8709Y-1.4219
X2.8787Y-3.4291
X2.9709Y-1.0384
X2.9709Y-1.1384
X2.9709Y-1.3219
X2.9709Y-1.4219
X2.9787Y-3.4291
X3.0709Y-1.0384
X3.0709Y-1.1384
X3.0709Y-1.3219
X3.0709Y-1.4219
X3.0787Y-3.4291
X3.2094Y-3.1933
X3.2199Y-1.7244
X3.22Y-1.28
X3.2209Y-1.5778
X3.2219Y-1.4281
X3.3094Y-3.1933
X3.3199Y-1.7244
X3.32Y-1.28
X3.3209Y-1.5778
X3.3219Y-1.4281
T0
M30
