%FSLAX45Y45*%
G04 Gerber Fmt 4.5, Leading zero omitted, Abs format (unit mm)*
G04 Created by KiCad (PCBNEW (5.1.9)-1) date 2022-12-02 18:00:50*
%MOMM*%
%LPD*%
G01*
G04 APERTURE LIST*
%TA.AperFunction,Profile*%
%ADD10C,0.050000*%
%TD*%
%ADD11C,0.200000*%
%ADD12C,0.300000*%
G04 APERTURE END LIST*
D10*
X5930021Y-8902500D02*
X5932500Y-8902500D01*
X5630000Y-8602500D02*
X5630000Y-2700000D01*
X5930021Y-8902500D02*
G75*
G02*
X5630000Y-8602500I-2521J297500D01*
G01*
X8330000Y-8902500D02*
X5932500Y-8902500D01*
X8630000Y-8602479D02*
X8630000Y-8597500D01*
X8630000Y-8602479D02*
G75*
G02*
X8330000Y-8902500I-297500J-2521D01*
G01*
X8630000Y-2700000D02*
X8630000Y-8597500D01*
X8329979Y-2400000D02*
G75*
G02*
X8630000Y-2700000I2521J-297500D01*
G01*
X5930000Y-2400000D02*
X8330000Y-2400000D01*
X5630000Y-2700021D02*
G75*
G02*
X5930000Y-2400000I297500J2521D01*
G01*
D11*
X5679750Y-6038750D02*
X5719750Y-6078750D01*
X5719750Y-6038750D02*
X5679750Y-6078750D01*
X5969010Y-6365380D02*
X6009010Y-6405380D01*
X6009010Y-6365380D02*
X5969010Y-6405380D01*
X6230400Y-6164150D02*
X6270400Y-6204150D01*
X6270400Y-6164150D02*
X6230400Y-6204150D01*
X6241100Y-5580700D02*
X6281100Y-5620700D01*
X6281100Y-5580700D02*
X6241100Y-5620700D01*
X6255650Y-6740640D02*
X6295650Y-6780640D01*
X6295650Y-6740640D02*
X6255650Y-6780640D01*
X6278750Y-6411560D02*
X6318750Y-6451560D01*
X6318750Y-6411560D02*
X6278750Y-6451560D01*
X6333110Y-5849130D02*
X6373110Y-5889130D01*
X6373110Y-5849130D02*
X6333110Y-5889130D01*
X6402500Y-7180900D02*
X6442500Y-7220900D01*
X6442500Y-7180900D02*
X6402500Y-7220900D01*
X6431600Y-5580700D02*
X6471600Y-5620700D01*
X6471600Y-5580700D02*
X6431600Y-5620700D01*
X6434900Y-5742500D02*
X6474900Y-5782500D01*
X6474900Y-5742500D02*
X6434900Y-5782500D01*
X6444300Y-4818700D02*
X6484300Y-4858700D01*
X6484300Y-4818700D02*
X6444300Y-4858700D01*
X6457400Y-6950200D02*
X6497400Y-6990200D01*
X6497400Y-6950200D02*
X6457400Y-6990200D01*
X6502770Y-5129550D02*
X6542770Y-5169550D01*
X6542770Y-5129550D02*
X6502770Y-5169550D01*
X6584000Y-7498400D02*
X6624000Y-7538400D01*
X6624000Y-7498400D02*
X6584000Y-7538400D01*
X6584000Y-7587300D02*
X6624000Y-7627300D01*
X6624000Y-7587300D02*
X6584000Y-7627300D01*
X6584000Y-7688900D02*
X6624000Y-7728900D01*
X6624000Y-7688900D02*
X6584000Y-7728900D01*
X6598100Y-5426900D02*
X6638100Y-5466900D01*
X6638100Y-5426900D02*
X6598100Y-5466900D01*
X6618110Y-6819260D02*
X6658110Y-6859260D01*
X6658110Y-6819260D02*
X6618110Y-6859260D01*
X6646300Y-5610480D02*
X6686300Y-5650480D01*
X6686300Y-5610480D02*
X6646300Y-5650480D01*
X6672900Y-6393500D02*
X6712900Y-6433500D01*
X6712900Y-6393500D02*
X6672900Y-6433500D01*
X6678000Y-6286070D02*
X6718000Y-6326070D01*
X6718000Y-6286070D02*
X6678000Y-6326070D01*
X6690530Y-5318010D02*
X6730530Y-5358010D01*
X6730530Y-5318010D02*
X6690530Y-5358010D01*
X6705715Y-6867482D02*
X6745715Y-6907482D01*
X6745715Y-6867482D02*
X6705715Y-6907482D01*
X6722760Y-5962475D02*
X6762760Y-6002475D01*
X6762760Y-5962475D02*
X6722760Y-6002475D01*
X6740013Y-6467634D02*
X6780013Y-6507634D01*
X6780013Y-6467634D02*
X6740013Y-6507634D01*
X6749100Y-4394800D02*
X6789100Y-4434800D01*
X6789100Y-4394800D02*
X6749100Y-4434800D01*
X6749100Y-4494800D02*
X6789100Y-4534800D01*
X6789100Y-4494800D02*
X6749100Y-4534800D01*
X6749100Y-4594800D02*
X6789100Y-4634800D01*
X6789100Y-4594800D02*
X6749100Y-4634800D01*
X6788630Y-6333740D02*
X6828630Y-6373740D01*
X6828630Y-6333740D02*
X6788630Y-6373740D01*
X6823030Y-6855260D02*
X6863030Y-6895260D01*
X6863030Y-6855260D02*
X6823030Y-6895260D01*
X6823760Y-5996400D02*
X6863760Y-6036400D01*
X6863760Y-5996400D02*
X6823760Y-6036400D01*
X6838000Y-4094800D02*
X6878000Y-4134800D01*
X6878000Y-4094800D02*
X6838000Y-4134800D01*
X6838000Y-4194800D02*
X6878000Y-4234800D01*
X6878000Y-4194800D02*
X6838000Y-4234800D01*
X6838000Y-4294800D02*
X6878000Y-4334800D01*
X6878000Y-4294800D02*
X6838000Y-4334800D01*
X6863400Y-4691700D02*
X6903400Y-4731700D01*
X6903400Y-4691700D02*
X6863400Y-4731700D01*
X6878460Y-6391780D02*
X6918460Y-6431780D01*
X6918460Y-6391780D02*
X6878460Y-6431780D01*
X6888800Y-5199700D02*
X6928800Y-5239700D01*
X6928800Y-5199700D02*
X6888800Y-5239700D01*
X6898360Y-5635800D02*
X6938360Y-5675800D01*
X6938360Y-5635800D02*
X6898360Y-5675800D01*
X6912990Y-7214380D02*
X6952990Y-7254380D01*
X6952990Y-7214380D02*
X6912990Y-7254380D01*
X6922950Y-6285660D02*
X6962950Y-6325660D01*
X6962950Y-6285660D02*
X6922950Y-6325660D01*
X6923730Y-6841260D02*
X6963730Y-6881260D01*
X6963730Y-6841260D02*
X6923730Y-6881260D01*
X6938160Y-6127260D02*
X6978160Y-6167260D01*
X6978160Y-6127260D02*
X6938160Y-6167260D01*
X6980720Y-5000370D02*
X7020720Y-5040370D01*
X7020720Y-5000370D02*
X6980720Y-5040370D01*
X7000690Y-5605230D02*
X7040690Y-5645230D01*
X7040690Y-5605230D02*
X7000690Y-5645230D01*
X7023750Y-5945200D02*
X7063750Y-5985200D01*
X7063750Y-5945200D02*
X7023750Y-5985200D01*
X7104700Y-6393500D02*
X7144700Y-6433500D01*
X7144700Y-6393500D02*
X7104700Y-6433500D01*
X7139000Y-6049810D02*
X7179000Y-6089810D01*
X7179000Y-6049810D02*
X7139000Y-6089810D01*
X7142800Y-6152200D02*
X7182800Y-6192200D01*
X7182800Y-6152200D02*
X7142800Y-6192200D01*
X7144000Y-5643380D02*
X7184000Y-5683380D01*
X7184000Y-5643380D02*
X7144000Y-5683380D01*
X7158540Y-5535200D02*
X7198540Y-5575200D01*
X7198540Y-5535200D02*
X7158540Y-5575200D01*
X7169840Y-5919780D02*
X7209840Y-5959780D01*
X7209840Y-5919780D02*
X7169840Y-5959780D01*
X7171002Y-5221601D02*
X7211002Y-5261601D01*
X7211002Y-5221601D02*
X7171002Y-5261601D01*
X7180000Y-6825620D02*
X7220000Y-6865620D01*
X7220000Y-6825620D02*
X7180000Y-6865620D01*
X7218929Y-5111831D02*
X7258929Y-5151831D01*
X7258929Y-5111831D02*
X7218929Y-5151831D01*
X7253220Y-4426700D02*
X7293220Y-4466700D01*
X7293220Y-4426700D02*
X7253220Y-4466700D01*
X7254380Y-5583760D02*
X7294380Y-5623760D01*
X7294380Y-5583760D02*
X7254380Y-5623760D01*
X7269800Y-7206300D02*
X7309800Y-7246300D01*
X7309800Y-7206300D02*
X7269800Y-7246300D01*
X7308610Y-5737930D02*
X7348610Y-5777930D01*
X7348610Y-5737930D02*
X7308610Y-5777930D01*
X7353340Y-5435640D02*
X7393340Y-5475640D01*
X7393340Y-5435640D02*
X7353340Y-5475640D01*
X7354420Y-5565070D02*
X7394420Y-5605070D01*
X7394420Y-5565070D02*
X7354420Y-5605070D01*
X7446325Y-4855525D02*
X7486325Y-4895525D01*
X7486325Y-4855525D02*
X7446325Y-4895525D01*
X7455885Y-5068285D02*
X7495885Y-5108285D01*
X7495885Y-5068285D02*
X7455885Y-5108285D01*
X7471048Y-5167939D02*
X7511048Y-5207939D01*
X7511048Y-5167939D02*
X7471048Y-5207939D01*
X7476700Y-4268900D02*
X7516700Y-4308900D01*
X7516700Y-4268900D02*
X7476700Y-4308900D01*
X7484400Y-4070700D02*
X7524400Y-4110700D01*
X7524400Y-4070700D02*
X7484400Y-4110700D01*
X7549200Y-7409500D02*
X7589200Y-7449500D01*
X7589200Y-7409500D02*
X7549200Y-7449500D01*
X7595200Y-4606010D02*
X7635200Y-4646010D01*
X7635200Y-4606010D02*
X7595200Y-4646010D01*
X7683040Y-7111530D02*
X7723040Y-7151530D01*
X7723040Y-7111530D02*
X7683040Y-7151530D01*
X7693060Y-6840260D02*
X7733060Y-6880260D01*
X7733060Y-6840260D02*
X7693060Y-6880260D01*
X7720650Y-5282250D02*
X7760650Y-5322250D01*
X7760650Y-5282250D02*
X7720650Y-5322250D01*
X7757200Y-4110950D02*
X7797200Y-4150950D01*
X7797200Y-4110950D02*
X7757200Y-4150950D01*
X7798680Y-4605700D02*
X7838680Y-4645700D01*
X7838680Y-4605700D02*
X7798680Y-4645700D01*
X7807300Y-4978180D02*
X7847300Y-5018180D01*
X7847300Y-4978180D02*
X7807300Y-5018180D01*
X7892100Y-5466400D02*
X7932100Y-5506400D01*
X7932100Y-5466400D02*
X7892100Y-5506400D01*
X7940010Y-4031230D02*
X7980010Y-4071230D01*
X7980010Y-4031230D02*
X7940010Y-4071230D01*
X7968300Y-6571300D02*
X8008300Y-6611300D01*
X8008300Y-6571300D02*
X7968300Y-6611300D01*
X7975160Y-6443350D02*
X8015160Y-6483350D01*
X8015160Y-6443350D02*
X7975160Y-6483350D01*
X7985710Y-6189270D02*
X8025710Y-6229270D01*
X8025710Y-6189270D02*
X7985710Y-6229270D01*
X8031800Y-7155500D02*
X8071800Y-7195500D01*
X8071800Y-7155500D02*
X8031800Y-7195500D01*
X8101540Y-4638740D02*
X8141540Y-4678740D01*
X8141540Y-4638740D02*
X8101540Y-4678740D01*
X8103700Y-7363000D02*
X8143700Y-7403000D01*
X8143700Y-7363000D02*
X8103700Y-7403000D01*
X8146100Y-7155500D02*
X8186100Y-7195500D01*
X8186100Y-7155500D02*
X8146100Y-7195500D01*
X8260400Y-7155500D02*
X8300400Y-7195500D01*
X8300400Y-7155500D02*
X8260400Y-7195500D01*
X8298500Y-5110800D02*
X8338500Y-5150800D01*
X8338500Y-5110800D02*
X8298500Y-5150800D01*
X8311200Y-5339400D02*
X8351200Y-5379400D01*
X8351200Y-5339400D02*
X8311200Y-5379400D01*
X8332000Y-7630000D02*
X8372000Y-7670000D01*
X8372000Y-7630000D02*
X8332000Y-7670000D01*
X8349300Y-7155500D02*
X8389300Y-7195500D01*
X8389300Y-7155500D02*
X8349300Y-7195500D01*
X8425750Y-6398580D02*
X8465750Y-6438580D01*
X8465750Y-6398580D02*
X8425750Y-6438580D01*
X8426410Y-5195250D02*
X8466410Y-5235250D01*
X8466410Y-5195250D02*
X8426410Y-5235250D01*
X8438200Y-7155500D02*
X8478200Y-7195500D01*
X8478200Y-7155500D02*
X8438200Y-7195500D01*
X8444000Y-7530700D02*
X8484000Y-7570700D01*
X8484000Y-7530700D02*
X8444000Y-7570700D01*
X8471260Y-5372590D02*
X8511260Y-5412590D01*
X8511260Y-5372590D02*
X8471260Y-5412590D01*
X6455000Y-8725000D02*
G75*
G03*
X6455000Y-8725000I-32500J0D01*
G01*
X6582000Y-8725000D02*
G75*
G03*
X6582000Y-8725000I-32500J0D01*
G01*
X6709000Y-8725000D02*
G75*
G03*
X6709000Y-8725000I-32500J0D01*
G01*
X6836000Y-8725000D02*
G75*
G03*
X6836000Y-8725000I-32500J0D01*
G01*
X6963000Y-8725000D02*
G75*
G03*
X6963000Y-8725000I-32500J0D01*
G01*
X5853500Y-3187500D02*
X5853500Y-3287500D01*
X5803500Y-3237500D02*
X5903500Y-3237500D01*
X5853500Y-3441500D02*
X5853500Y-3541500D01*
X5803500Y-3491500D02*
X5903500Y-3491500D01*
X5853500Y-3695500D02*
X5853500Y-3795500D01*
X5803500Y-3745500D02*
X5903500Y-3745500D01*
X5853500Y-3949500D02*
X5853500Y-4049500D01*
X5803500Y-3999500D02*
X5903500Y-3999500D01*
X5853500Y-4203500D02*
X5853500Y-4303500D01*
X5803500Y-4253500D02*
X5903500Y-4253500D01*
X5853500Y-4457500D02*
X5853500Y-4557500D01*
X5803500Y-4507500D02*
X5903500Y-4507500D01*
X5853500Y-4711500D02*
X5853500Y-4811500D01*
X5803500Y-4761500D02*
X5903500Y-4761500D01*
X5853500Y-4965500D02*
X5853500Y-5065500D01*
X5803500Y-5015500D02*
X5903500Y-5015500D01*
X5853500Y-5219500D02*
X5853500Y-5319500D01*
X5803500Y-5269500D02*
X5903500Y-5269500D01*
X5853500Y-5473500D02*
X5853500Y-5573500D01*
X5803500Y-5523500D02*
X5903500Y-5523500D01*
X5853500Y-5727500D02*
X5853500Y-5827500D01*
X5803500Y-5777500D02*
X5903500Y-5777500D01*
X5853500Y-5981500D02*
X5853500Y-6081500D01*
X5803500Y-6031500D02*
X5903500Y-6031500D01*
X5853500Y-6235500D02*
X5853500Y-6335500D01*
X5803500Y-6285500D02*
X5903500Y-6285500D01*
X5853500Y-6489500D02*
X5853500Y-6589500D01*
X5803500Y-6539500D02*
X5903500Y-6539500D01*
X5853500Y-6743500D02*
X5853500Y-6843500D01*
X5803500Y-6793500D02*
X5903500Y-6793500D01*
X5853500Y-6997500D02*
X5853500Y-7097500D01*
X5803500Y-7047500D02*
X5903500Y-7047500D01*
X5853500Y-7251500D02*
X5853500Y-7351500D01*
X5803500Y-7301500D02*
X5903500Y-7301500D01*
X5853500Y-7505500D02*
X5853500Y-7605500D01*
X5803500Y-7555500D02*
X5903500Y-7555500D01*
X5853500Y-7759500D02*
X5853500Y-7859500D01*
X5803500Y-7809500D02*
X5903500Y-7809500D01*
X5853500Y-8013500D02*
X5853500Y-8113500D01*
X5803500Y-8063500D02*
X5903500Y-8063500D01*
X6107500Y-3187500D02*
X6107500Y-3287500D01*
X6057500Y-3237500D02*
X6157500Y-3237500D01*
X6107500Y-3441500D02*
X6107500Y-3541500D01*
X6057500Y-3491500D02*
X6157500Y-3491500D01*
X6107500Y-3695500D02*
X6107500Y-3795500D01*
X6057500Y-3745500D02*
X6157500Y-3745500D01*
X6107500Y-3949500D02*
X6107500Y-4049500D01*
X6057500Y-3999500D02*
X6157500Y-3999500D01*
X6107500Y-4203500D02*
X6107500Y-4303500D01*
X6057500Y-4253500D02*
X6157500Y-4253500D01*
X6107500Y-4457500D02*
X6107500Y-4557500D01*
X6057500Y-4507500D02*
X6157500Y-4507500D01*
X6107500Y-4711500D02*
X6107500Y-4811500D01*
X6057500Y-4761500D02*
X6157500Y-4761500D01*
X6107500Y-4965500D02*
X6107500Y-5065500D01*
X6057500Y-5015500D02*
X6157500Y-5015500D01*
X6107500Y-5219500D02*
X6107500Y-5319500D01*
X6057500Y-5269500D02*
X6157500Y-5269500D01*
X6107500Y-5473500D02*
X6107500Y-5573500D01*
X6057500Y-5523500D02*
X6157500Y-5523500D01*
X6107500Y-5727500D02*
X6107500Y-5827500D01*
X6057500Y-5777500D02*
X6157500Y-5777500D01*
X6107500Y-5981500D02*
X6107500Y-6081500D01*
X6057500Y-6031500D02*
X6157500Y-6031500D01*
X6107500Y-6235500D02*
X6107500Y-6335500D01*
X6057500Y-6285500D02*
X6157500Y-6285500D01*
X6107500Y-6489500D02*
X6107500Y-6589500D01*
X6057500Y-6539500D02*
X6157500Y-6539500D01*
X6107500Y-6743500D02*
X6107500Y-6843500D01*
X6057500Y-6793500D02*
X6157500Y-6793500D01*
X6107500Y-6997500D02*
X6107500Y-7097500D01*
X6057500Y-7047500D02*
X6157500Y-7047500D01*
X6107500Y-7251500D02*
X6107500Y-7351500D01*
X6057500Y-7301500D02*
X6157500Y-7301500D01*
X6107500Y-7505500D02*
X6107500Y-7605500D01*
X6057500Y-7555500D02*
X6157500Y-7555500D01*
X6107500Y-7759500D02*
X6107500Y-7859500D01*
X6057500Y-7809500D02*
X6157500Y-7809500D01*
X6107500Y-8013500D02*
X6107500Y-8113500D01*
X6057500Y-8063500D02*
X6157500Y-8063500D01*
X6530000Y-2587500D02*
X6530000Y-2687500D01*
X6480000Y-2637500D02*
X6580000Y-2637500D01*
X6530000Y-2841500D02*
X6530000Y-2941500D01*
X6480000Y-2891500D02*
X6580000Y-2891500D01*
X6530000Y-3307500D02*
X6530000Y-3407500D01*
X6480000Y-3357500D02*
X6580000Y-3357500D01*
X6530000Y-3561500D02*
X6530000Y-3661500D01*
X6480000Y-3611500D02*
X6580000Y-3611500D01*
X6784000Y-2587500D02*
X6784000Y-2687500D01*
X6734000Y-2637500D02*
X6834000Y-2637500D01*
X6784000Y-2841500D02*
X6784000Y-2941500D01*
X6734000Y-2891500D02*
X6834000Y-2891500D01*
X6784000Y-3307500D02*
X6784000Y-3407500D01*
X6734000Y-3357500D02*
X6834000Y-3357500D01*
X6784000Y-3561500D02*
X6784000Y-3661500D01*
X6734000Y-3611500D02*
X6834000Y-3611500D01*
X7038000Y-2587500D02*
X7038000Y-2687500D01*
X6988000Y-2637500D02*
X7088000Y-2637500D01*
X7038000Y-2841500D02*
X7038000Y-2941500D01*
X6988000Y-2891500D02*
X7088000Y-2891500D01*
X7038000Y-3307500D02*
X7038000Y-3407500D01*
X6988000Y-3357500D02*
X7088000Y-3357500D01*
X7038000Y-3561500D02*
X7038000Y-3661500D01*
X6988000Y-3611500D02*
X7088000Y-3611500D01*
X7292000Y-2587500D02*
X7292000Y-2687500D01*
X7242000Y-2637500D02*
X7342000Y-2637500D01*
X7292000Y-2841500D02*
X7292000Y-2941500D01*
X7242000Y-2891500D02*
X7342000Y-2891500D01*
X7292000Y-3307500D02*
X7292000Y-3407500D01*
X7242000Y-3357500D02*
X7342000Y-3357500D01*
X7292000Y-3561500D02*
X7292000Y-3661500D01*
X7242000Y-3611500D02*
X7342000Y-3611500D01*
X7312000Y-8660000D02*
X7312000Y-8760000D01*
X7262000Y-8710000D02*
X7362000Y-8710000D01*
X7546000Y-2587500D02*
X7546000Y-2687500D01*
X7496000Y-2637500D02*
X7596000Y-2637500D01*
X7546000Y-2841500D02*
X7546000Y-2941500D01*
X7496000Y-2891500D02*
X7596000Y-2891500D01*
X7546000Y-3307500D02*
X7546000Y-3407500D01*
X7496000Y-3357500D02*
X7596000Y-3357500D01*
X7546000Y-3561500D02*
X7546000Y-3661500D01*
X7496000Y-3611500D02*
X7596000Y-3611500D01*
X7566000Y-8660000D02*
X7566000Y-8760000D01*
X7516000Y-8710000D02*
X7616000Y-8710000D01*
X7800000Y-2587500D02*
X7800000Y-2687500D01*
X7750000Y-2637500D02*
X7850000Y-2637500D01*
X7800000Y-2841500D02*
X7800000Y-2941500D01*
X7750000Y-2891500D02*
X7850000Y-2891500D01*
X7800000Y-3307500D02*
X7800000Y-3407500D01*
X7750000Y-3357500D02*
X7850000Y-3357500D01*
X7800000Y-3561500D02*
X7800000Y-3661500D01*
X7750000Y-3611500D02*
X7850000Y-3611500D01*
X7820000Y-8660000D02*
X7820000Y-8760000D01*
X7770000Y-8710000D02*
X7870000Y-8710000D01*
X8152000Y-8061000D02*
X8152000Y-8161000D01*
X8102000Y-8111000D02*
X8202000Y-8111000D01*
X8178500Y-4330000D02*
X8178500Y-4430000D01*
X8128500Y-4380000D02*
X8228500Y-4380000D01*
X8178800Y-3201200D02*
X8178800Y-3301200D01*
X8128800Y-3251200D02*
X8228800Y-3251200D01*
X8181000Y-3957500D02*
X8181000Y-4057500D01*
X8131000Y-4007500D02*
X8231000Y-4007500D01*
X8183500Y-3577500D02*
X8183500Y-3677500D01*
X8133500Y-3627500D02*
X8233500Y-3627500D01*
X8406000Y-8061000D02*
X8406000Y-8161000D01*
X8356000Y-8111000D02*
X8456000Y-8111000D01*
X8432500Y-4330000D02*
X8432500Y-4430000D01*
X8382500Y-4380000D02*
X8482500Y-4380000D01*
X8432800Y-3201200D02*
X8432800Y-3301200D01*
X8382800Y-3251200D02*
X8482800Y-3251200D01*
X8435000Y-3957500D02*
X8435000Y-4057500D01*
X8385000Y-4007500D02*
X8485000Y-4007500D01*
X8437500Y-3577500D02*
X8437500Y-3677500D01*
X8387500Y-3627500D02*
X8487500Y-3627500D01*
D12*
X5913918Y-9370725D02*
X5913918Y-9070725D01*
X5985347Y-9070725D01*
X6028204Y-9085011D01*
X6056775Y-9113582D01*
X6071061Y-9142153D01*
X6085347Y-9199296D01*
X6085347Y-9242153D01*
X6071061Y-9299296D01*
X6056775Y-9327868D01*
X6028204Y-9356439D01*
X5985347Y-9370725D01*
X5913918Y-9370725D01*
X6213918Y-9370725D02*
X6213918Y-9170725D01*
X6213918Y-9227868D02*
X6228204Y-9199296D01*
X6242489Y-9185011D01*
X6271061Y-9170725D01*
X6299632Y-9170725D01*
X6399632Y-9370725D02*
X6399632Y-9170725D01*
X6399632Y-9070725D02*
X6385347Y-9085011D01*
X6399632Y-9099296D01*
X6413918Y-9085011D01*
X6399632Y-9070725D01*
X6399632Y-9099296D01*
X6585347Y-9370725D02*
X6556775Y-9356439D01*
X6542489Y-9327868D01*
X6542489Y-9070725D01*
X6742489Y-9370725D02*
X6713918Y-9356439D01*
X6699632Y-9327868D01*
X6699632Y-9070725D01*
X7085347Y-9370725D02*
X7085347Y-9070725D01*
X7185347Y-9285011D01*
X7285347Y-9070725D01*
X7285347Y-9370725D01*
X7556775Y-9370725D02*
X7556775Y-9213582D01*
X7542489Y-9185011D01*
X7513918Y-9170725D01*
X7456775Y-9170725D01*
X7428204Y-9185011D01*
X7556775Y-9356439D02*
X7528204Y-9370725D01*
X7456775Y-9370725D01*
X7428204Y-9356439D01*
X7413918Y-9327868D01*
X7413918Y-9299296D01*
X7428204Y-9270725D01*
X7456775Y-9256439D01*
X7528204Y-9256439D01*
X7556775Y-9242153D01*
X7699632Y-9170725D02*
X7699632Y-9470725D01*
X7699632Y-9185011D02*
X7728204Y-9170725D01*
X7785347Y-9170725D01*
X7813918Y-9185011D01*
X7828204Y-9199296D01*
X7842489Y-9227868D01*
X7842489Y-9313582D01*
X7828204Y-9342153D01*
X7813918Y-9356439D01*
X7785347Y-9370725D01*
X7728204Y-9370725D01*
X7699632Y-9356439D01*
X7971061Y-9342153D02*
X7985347Y-9356439D01*
X7971061Y-9370725D01*
X7956775Y-9356439D01*
X7971061Y-9342153D01*
X7971061Y-9370725D01*
X7971061Y-9185011D02*
X7985347Y-9199296D01*
X7971061Y-9213582D01*
X7956775Y-9199296D01*
X7971061Y-9185011D01*
X7971061Y-9213582D01*
X5587490Y-9845011D02*
X5627489Y-9885011D01*
X5627489Y-9845011D02*
X5587490Y-9885011D01*
X5971061Y-9700725D02*
X5999632Y-9700725D01*
X6028204Y-9715011D01*
X6042489Y-9729296D01*
X6056775Y-9757868D01*
X6071061Y-9815011D01*
X6071061Y-9886439D01*
X6056775Y-9943582D01*
X6042489Y-9972153D01*
X6028204Y-9986439D01*
X5999632Y-10000725D01*
X5971061Y-10000725D01*
X5942489Y-9986439D01*
X5928204Y-9972153D01*
X5913918Y-9943582D01*
X5899632Y-9886439D01*
X5899632Y-9815011D01*
X5913918Y-9757868D01*
X5928204Y-9729296D01*
X5942489Y-9715011D01*
X5971061Y-9700725D01*
X6199632Y-9972153D02*
X6213918Y-9986439D01*
X6199632Y-10000725D01*
X6185347Y-9986439D01*
X6199632Y-9972153D01*
X6199632Y-10000725D01*
X6471061Y-9800725D02*
X6471061Y-10000725D01*
X6399632Y-9686439D02*
X6328204Y-9900725D01*
X6513918Y-9900725D01*
X6685347Y-9700725D02*
X6713918Y-9700725D01*
X6742489Y-9715011D01*
X6756775Y-9729296D01*
X6771061Y-9757868D01*
X6785347Y-9815011D01*
X6785347Y-9886439D01*
X6771061Y-9943582D01*
X6756775Y-9972153D01*
X6742489Y-9986439D01*
X6713918Y-10000725D01*
X6685347Y-10000725D01*
X6656775Y-9986439D01*
X6642489Y-9972153D01*
X6628204Y-9943582D01*
X6613918Y-9886439D01*
X6613918Y-9815011D01*
X6628204Y-9757868D01*
X6642489Y-9729296D01*
X6656775Y-9715011D01*
X6685347Y-9700725D01*
X6913918Y-10000725D02*
X6913918Y-9800725D01*
X6913918Y-9829296D02*
X6928204Y-9815011D01*
X6956775Y-9800725D01*
X6999632Y-9800725D01*
X7028204Y-9815011D01*
X7042489Y-9843582D01*
X7042489Y-10000725D01*
X7042489Y-9843582D02*
X7056775Y-9815011D01*
X7085347Y-9800725D01*
X7128204Y-9800725D01*
X7156775Y-9815011D01*
X7171061Y-9843582D01*
X7171061Y-10000725D01*
X7313918Y-10000725D02*
X7313918Y-9800725D01*
X7313918Y-9829296D02*
X7328204Y-9815011D01*
X7356775Y-9800725D01*
X7399632Y-9800725D01*
X7428204Y-9815011D01*
X7442489Y-9843582D01*
X7442489Y-10000725D01*
X7442489Y-9843582D02*
X7456775Y-9815011D01*
X7485347Y-9800725D01*
X7528204Y-9800725D01*
X7556775Y-9815011D01*
X7571061Y-9843582D01*
X7571061Y-10000725D01*
X8156775Y-9686439D02*
X7899632Y-10072153D01*
X8542490Y-9700725D02*
X8571061Y-9700725D01*
X8599632Y-9715011D01*
X8613918Y-9729296D01*
X8628204Y-9757868D01*
X8642490Y-9815011D01*
X8642490Y-9886439D01*
X8628204Y-9943582D01*
X8613918Y-9972153D01*
X8599632Y-9986439D01*
X8571061Y-10000725D01*
X8542490Y-10000725D01*
X8513918Y-9986439D01*
X8499632Y-9972153D01*
X8485347Y-9943582D01*
X8471061Y-9886439D01*
X8471061Y-9815011D01*
X8485347Y-9757868D01*
X8499632Y-9729296D01*
X8513918Y-9715011D01*
X8542490Y-9700725D01*
X8771061Y-9972153D02*
X8785347Y-9986439D01*
X8771061Y-10000725D01*
X8756775Y-9986439D01*
X8771061Y-9972153D01*
X8771061Y-10000725D01*
X8971061Y-9700725D02*
X8999632Y-9700725D01*
X9028204Y-9715011D01*
X9042490Y-9729296D01*
X9056775Y-9757868D01*
X9071061Y-9815011D01*
X9071061Y-9886439D01*
X9056775Y-9943582D01*
X9042490Y-9972153D01*
X9028204Y-9986439D01*
X8999632Y-10000725D01*
X8971061Y-10000725D01*
X8942490Y-9986439D01*
X8928204Y-9972153D01*
X8913918Y-9943582D01*
X8899632Y-9886439D01*
X8899632Y-9815011D01*
X8913918Y-9757868D01*
X8928204Y-9729296D01*
X8942490Y-9715011D01*
X8971061Y-9700725D01*
X9356775Y-10000725D02*
X9185347Y-10000725D01*
X9271061Y-10000725D02*
X9271061Y-9700725D01*
X9242490Y-9743582D01*
X9213918Y-9772153D01*
X9185347Y-9786439D01*
X9613918Y-9700725D02*
X9556775Y-9700725D01*
X9528204Y-9715011D01*
X9513918Y-9729296D01*
X9485347Y-9772153D01*
X9471061Y-9829296D01*
X9471061Y-9943582D01*
X9485347Y-9972153D01*
X9499632Y-9986439D01*
X9528204Y-10000725D01*
X9585347Y-10000725D01*
X9613918Y-9986439D01*
X9628204Y-9972153D01*
X9642490Y-9943582D01*
X9642490Y-9872153D01*
X9628204Y-9843582D01*
X9613918Y-9829296D01*
X9585347Y-9815011D01*
X9528204Y-9815011D01*
X9499632Y-9829296D01*
X9485347Y-9843582D01*
X9471061Y-9872153D01*
X9756775Y-9700725D02*
X9756775Y-9757868D01*
X9871061Y-9700725D02*
X9871061Y-9757868D01*
X10313918Y-10115011D02*
X10299632Y-10100725D01*
X10271061Y-10057868D01*
X10256775Y-10029296D01*
X10242490Y-9986439D01*
X10228204Y-9915011D01*
X10228204Y-9857868D01*
X10242490Y-9786439D01*
X10256775Y-9743582D01*
X10271061Y-9715011D01*
X10299632Y-9672153D01*
X10313918Y-9657868D01*
X10442490Y-10000725D02*
X10499632Y-10000725D01*
X10528204Y-9986439D01*
X10542490Y-9972153D01*
X10571061Y-9929296D01*
X10585347Y-9872153D01*
X10585347Y-9757868D01*
X10571061Y-9729296D01*
X10556775Y-9715011D01*
X10528204Y-9700725D01*
X10471061Y-9700725D01*
X10442490Y-9715011D01*
X10428204Y-9729296D01*
X10413918Y-9757868D01*
X10413918Y-9829296D01*
X10428204Y-9857868D01*
X10442490Y-9872153D01*
X10471061Y-9886439D01*
X10528204Y-9886439D01*
X10556775Y-9872153D01*
X10571061Y-9857868D01*
X10585347Y-9829296D01*
X10699632Y-9729296D02*
X10713918Y-9715011D01*
X10742490Y-9700725D01*
X10813918Y-9700725D01*
X10842490Y-9715011D01*
X10856775Y-9729296D01*
X10871061Y-9757868D01*
X10871061Y-9786439D01*
X10856775Y-9829296D01*
X10685347Y-10000725D01*
X10871061Y-10000725D01*
X11228204Y-10000725D02*
X11228204Y-9700725D01*
X11356775Y-10000725D02*
X11356775Y-9843582D01*
X11342489Y-9815011D01*
X11313918Y-9800725D01*
X11271061Y-9800725D01*
X11242489Y-9815011D01*
X11228204Y-9829296D01*
X11542489Y-10000725D02*
X11513918Y-9986439D01*
X11499632Y-9972153D01*
X11485347Y-9943582D01*
X11485347Y-9857868D01*
X11499632Y-9829296D01*
X11513918Y-9815011D01*
X11542489Y-9800725D01*
X11585347Y-9800725D01*
X11613918Y-9815011D01*
X11628204Y-9829296D01*
X11642489Y-9857868D01*
X11642489Y-9943582D01*
X11628204Y-9972153D01*
X11613918Y-9986439D01*
X11585347Y-10000725D01*
X11542489Y-10000725D01*
X11813918Y-10000725D02*
X11785347Y-9986439D01*
X11771061Y-9957868D01*
X11771061Y-9700725D01*
X12042489Y-9986439D02*
X12013918Y-10000725D01*
X11956775Y-10000725D01*
X11928204Y-9986439D01*
X11913918Y-9957868D01*
X11913918Y-9843582D01*
X11928204Y-9815011D01*
X11956775Y-9800725D01*
X12013918Y-9800725D01*
X12042489Y-9815011D01*
X12056775Y-9843582D01*
X12056775Y-9872153D01*
X11913918Y-9900725D01*
X12171061Y-9986439D02*
X12199632Y-10000725D01*
X12256775Y-10000725D01*
X12285347Y-9986439D01*
X12299632Y-9957868D01*
X12299632Y-9943582D01*
X12285347Y-9915011D01*
X12256775Y-9900725D01*
X12213918Y-9900725D01*
X12185347Y-9886439D01*
X12171061Y-9857868D01*
X12171061Y-9843582D01*
X12185347Y-9815011D01*
X12213918Y-9800725D01*
X12256775Y-9800725D01*
X12285347Y-9815011D01*
X12399632Y-10115011D02*
X12413918Y-10100725D01*
X12442489Y-10057868D01*
X12456775Y-10029296D01*
X12471061Y-9986439D01*
X12485347Y-9915011D01*
X12485347Y-9857868D01*
X12471061Y-9786439D01*
X12456775Y-9743582D01*
X12442489Y-9715011D01*
X12413918Y-9672153D01*
X12399632Y-9657868D01*
X5627489Y-10261011D02*
G75*
G03*
X5627489Y-10261011I-32500J0D01*
G01*
X5971061Y-10096725D02*
X5999632Y-10096725D01*
X6028204Y-10111011D01*
X6042489Y-10125296D01*
X6056775Y-10153868D01*
X6071061Y-10211011D01*
X6071061Y-10282439D01*
X6056775Y-10339582D01*
X6042489Y-10368153D01*
X6028204Y-10382439D01*
X5999632Y-10396725D01*
X5971061Y-10396725D01*
X5942489Y-10382439D01*
X5928204Y-10368153D01*
X5913918Y-10339582D01*
X5899632Y-10282439D01*
X5899632Y-10211011D01*
X5913918Y-10153868D01*
X5928204Y-10125296D01*
X5942489Y-10111011D01*
X5971061Y-10096725D01*
X6199632Y-10368153D02*
X6213918Y-10382439D01*
X6199632Y-10396725D01*
X6185347Y-10382439D01*
X6199632Y-10368153D01*
X6199632Y-10396725D01*
X6471061Y-10096725D02*
X6413918Y-10096725D01*
X6385347Y-10111011D01*
X6371061Y-10125296D01*
X6342489Y-10168153D01*
X6328204Y-10225296D01*
X6328204Y-10339582D01*
X6342489Y-10368153D01*
X6356775Y-10382439D01*
X6385347Y-10396725D01*
X6442489Y-10396725D01*
X6471061Y-10382439D01*
X6485347Y-10368153D01*
X6499632Y-10339582D01*
X6499632Y-10268153D01*
X6485347Y-10239582D01*
X6471061Y-10225296D01*
X6442489Y-10211011D01*
X6385347Y-10211011D01*
X6356775Y-10225296D01*
X6342489Y-10239582D01*
X6328204Y-10268153D01*
X6771061Y-10096725D02*
X6628204Y-10096725D01*
X6613918Y-10239582D01*
X6628204Y-10225296D01*
X6656775Y-10211011D01*
X6728204Y-10211011D01*
X6756775Y-10225296D01*
X6771061Y-10239582D01*
X6785347Y-10268153D01*
X6785347Y-10339582D01*
X6771061Y-10368153D01*
X6756775Y-10382439D01*
X6728204Y-10396725D01*
X6656775Y-10396725D01*
X6628204Y-10382439D01*
X6613918Y-10368153D01*
X6913918Y-10396725D02*
X6913918Y-10196725D01*
X6913918Y-10225296D02*
X6928204Y-10211011D01*
X6956775Y-10196725D01*
X6999632Y-10196725D01*
X7028204Y-10211011D01*
X7042489Y-10239582D01*
X7042489Y-10396725D01*
X7042489Y-10239582D02*
X7056775Y-10211011D01*
X7085347Y-10196725D01*
X7128204Y-10196725D01*
X7156775Y-10211011D01*
X7171061Y-10239582D01*
X7171061Y-10396725D01*
X7313918Y-10396725D02*
X7313918Y-10196725D01*
X7313918Y-10225296D02*
X7328204Y-10211011D01*
X7356775Y-10196725D01*
X7399632Y-10196725D01*
X7428204Y-10211011D01*
X7442489Y-10239582D01*
X7442489Y-10396725D01*
X7442489Y-10239582D02*
X7456775Y-10211011D01*
X7485347Y-10196725D01*
X7528204Y-10196725D01*
X7556775Y-10211011D01*
X7571061Y-10239582D01*
X7571061Y-10396725D01*
X8156775Y-10082439D02*
X7899632Y-10468153D01*
X8542490Y-10096725D02*
X8571061Y-10096725D01*
X8599632Y-10111011D01*
X8613918Y-10125296D01*
X8628204Y-10153868D01*
X8642490Y-10211011D01*
X8642490Y-10282439D01*
X8628204Y-10339582D01*
X8613918Y-10368153D01*
X8599632Y-10382439D01*
X8571061Y-10396725D01*
X8542490Y-10396725D01*
X8513918Y-10382439D01*
X8499632Y-10368153D01*
X8485347Y-10339582D01*
X8471061Y-10282439D01*
X8471061Y-10211011D01*
X8485347Y-10153868D01*
X8499632Y-10125296D01*
X8513918Y-10111011D01*
X8542490Y-10096725D01*
X8771061Y-10368153D02*
X8785347Y-10382439D01*
X8771061Y-10396725D01*
X8756775Y-10382439D01*
X8771061Y-10368153D01*
X8771061Y-10396725D01*
X8971061Y-10096725D02*
X8999632Y-10096725D01*
X9028204Y-10111011D01*
X9042490Y-10125296D01*
X9056775Y-10153868D01*
X9071061Y-10211011D01*
X9071061Y-10282439D01*
X9056775Y-10339582D01*
X9042490Y-10368153D01*
X9028204Y-10382439D01*
X8999632Y-10396725D01*
X8971061Y-10396725D01*
X8942490Y-10382439D01*
X8928204Y-10368153D01*
X8913918Y-10339582D01*
X8899632Y-10282439D01*
X8899632Y-10211011D01*
X8913918Y-10153868D01*
X8928204Y-10125296D01*
X8942490Y-10111011D01*
X8971061Y-10096725D01*
X9185347Y-10125296D02*
X9199632Y-10111011D01*
X9228204Y-10096725D01*
X9299632Y-10096725D01*
X9328204Y-10111011D01*
X9342490Y-10125296D01*
X9356775Y-10153868D01*
X9356775Y-10182439D01*
X9342490Y-10225296D01*
X9171061Y-10396725D01*
X9356775Y-10396725D01*
X9613918Y-10096725D02*
X9556775Y-10096725D01*
X9528204Y-10111011D01*
X9513918Y-10125296D01*
X9485347Y-10168153D01*
X9471061Y-10225296D01*
X9471061Y-10339582D01*
X9485347Y-10368153D01*
X9499632Y-10382439D01*
X9528204Y-10396725D01*
X9585347Y-10396725D01*
X9613918Y-10382439D01*
X9628204Y-10368153D01*
X9642490Y-10339582D01*
X9642490Y-10268153D01*
X9628204Y-10239582D01*
X9613918Y-10225296D01*
X9585347Y-10211011D01*
X9528204Y-10211011D01*
X9499632Y-10225296D01*
X9485347Y-10239582D01*
X9471061Y-10268153D01*
X9756775Y-10096725D02*
X9756775Y-10153868D01*
X9871061Y-10096725D02*
X9871061Y-10153868D01*
X10313918Y-10511011D02*
X10299632Y-10496725D01*
X10271061Y-10453868D01*
X10256775Y-10425296D01*
X10242490Y-10382439D01*
X10228204Y-10311011D01*
X10228204Y-10253868D01*
X10242490Y-10182439D01*
X10256775Y-10139582D01*
X10271061Y-10111011D01*
X10299632Y-10068153D01*
X10313918Y-10053868D01*
X10571061Y-10096725D02*
X10428204Y-10096725D01*
X10413918Y-10239582D01*
X10428204Y-10225296D01*
X10456775Y-10211011D01*
X10528204Y-10211011D01*
X10556775Y-10225296D01*
X10571061Y-10239582D01*
X10585347Y-10268153D01*
X10585347Y-10339582D01*
X10571061Y-10368153D01*
X10556775Y-10382439D01*
X10528204Y-10396725D01*
X10456775Y-10396725D01*
X10428204Y-10382439D01*
X10413918Y-10368153D01*
X10942490Y-10396725D02*
X10942490Y-10096725D01*
X11071061Y-10396725D02*
X11071061Y-10239582D01*
X11056775Y-10211011D01*
X11028204Y-10196725D01*
X10985347Y-10196725D01*
X10956775Y-10211011D01*
X10942490Y-10225296D01*
X11256775Y-10396725D02*
X11228204Y-10382439D01*
X11213918Y-10368153D01*
X11199632Y-10339582D01*
X11199632Y-10253868D01*
X11213918Y-10225296D01*
X11228204Y-10211011D01*
X11256775Y-10196725D01*
X11299632Y-10196725D01*
X11328204Y-10211011D01*
X11342489Y-10225296D01*
X11356775Y-10253868D01*
X11356775Y-10339582D01*
X11342489Y-10368153D01*
X11328204Y-10382439D01*
X11299632Y-10396725D01*
X11256775Y-10396725D01*
X11528204Y-10396725D02*
X11499632Y-10382439D01*
X11485347Y-10353868D01*
X11485347Y-10096725D01*
X11756775Y-10382439D02*
X11728204Y-10396725D01*
X11671061Y-10396725D01*
X11642489Y-10382439D01*
X11628204Y-10353868D01*
X11628204Y-10239582D01*
X11642489Y-10211011D01*
X11671061Y-10196725D01*
X11728204Y-10196725D01*
X11756775Y-10211011D01*
X11771061Y-10239582D01*
X11771061Y-10268153D01*
X11628204Y-10296725D01*
X11885347Y-10382439D02*
X11913918Y-10396725D01*
X11971061Y-10396725D01*
X11999632Y-10382439D01*
X12013918Y-10353868D01*
X12013918Y-10339582D01*
X11999632Y-10311011D01*
X11971061Y-10296725D01*
X11928204Y-10296725D01*
X11899632Y-10282439D01*
X11885347Y-10253868D01*
X11885347Y-10239582D01*
X11899632Y-10211011D01*
X11928204Y-10196725D01*
X11971061Y-10196725D01*
X11999632Y-10211011D01*
X12113918Y-10511011D02*
X12128204Y-10496725D01*
X12156775Y-10453868D01*
X12171061Y-10425296D01*
X12185347Y-10382439D01*
X12199632Y-10311011D01*
X12199632Y-10253868D01*
X12185347Y-10182439D01*
X12171061Y-10139582D01*
X12156775Y-10111011D01*
X12128204Y-10068153D01*
X12113918Y-10053868D01*
X5577490Y-10607011D02*
X5577490Y-10707011D01*
X5527490Y-10657011D02*
X5627489Y-10657011D01*
X6071061Y-10792725D02*
X5899632Y-10792725D01*
X5985347Y-10792725D02*
X5985347Y-10492725D01*
X5956775Y-10535582D01*
X5928204Y-10564153D01*
X5899632Y-10578439D01*
X6199632Y-10764153D02*
X6213918Y-10778439D01*
X6199632Y-10792725D01*
X6185347Y-10778439D01*
X6199632Y-10764153D01*
X6199632Y-10792725D01*
X6399632Y-10492725D02*
X6428204Y-10492725D01*
X6456775Y-10507011D01*
X6471061Y-10521296D01*
X6485347Y-10549868D01*
X6499632Y-10607011D01*
X6499632Y-10678439D01*
X6485347Y-10735582D01*
X6471061Y-10764153D01*
X6456775Y-10778439D01*
X6428204Y-10792725D01*
X6399632Y-10792725D01*
X6371061Y-10778439D01*
X6356775Y-10764153D01*
X6342489Y-10735582D01*
X6328204Y-10678439D01*
X6328204Y-10607011D01*
X6342489Y-10549868D01*
X6356775Y-10521296D01*
X6371061Y-10507011D01*
X6399632Y-10492725D01*
X6685347Y-10492725D02*
X6713918Y-10492725D01*
X6742489Y-10507011D01*
X6756775Y-10521296D01*
X6771061Y-10549868D01*
X6785347Y-10607011D01*
X6785347Y-10678439D01*
X6771061Y-10735582D01*
X6756775Y-10764153D01*
X6742489Y-10778439D01*
X6713918Y-10792725D01*
X6685347Y-10792725D01*
X6656775Y-10778439D01*
X6642489Y-10764153D01*
X6628204Y-10735582D01*
X6613918Y-10678439D01*
X6613918Y-10607011D01*
X6628204Y-10549868D01*
X6642489Y-10521296D01*
X6656775Y-10507011D01*
X6685347Y-10492725D01*
X6913918Y-10792725D02*
X6913918Y-10592725D01*
X6913918Y-10621296D02*
X6928204Y-10607011D01*
X6956775Y-10592725D01*
X6999632Y-10592725D01*
X7028204Y-10607011D01*
X7042489Y-10635582D01*
X7042489Y-10792725D01*
X7042489Y-10635582D02*
X7056775Y-10607011D01*
X7085347Y-10592725D01*
X7128204Y-10592725D01*
X7156775Y-10607011D01*
X7171061Y-10635582D01*
X7171061Y-10792725D01*
X7313918Y-10792725D02*
X7313918Y-10592725D01*
X7313918Y-10621296D02*
X7328204Y-10607011D01*
X7356775Y-10592725D01*
X7399632Y-10592725D01*
X7428204Y-10607011D01*
X7442489Y-10635582D01*
X7442489Y-10792725D01*
X7442489Y-10635582D02*
X7456775Y-10607011D01*
X7485347Y-10592725D01*
X7528204Y-10592725D01*
X7556775Y-10607011D01*
X7571061Y-10635582D01*
X7571061Y-10792725D01*
X8156775Y-10478439D02*
X7899632Y-10864153D01*
X8542490Y-10492725D02*
X8571061Y-10492725D01*
X8599632Y-10507011D01*
X8613918Y-10521296D01*
X8628204Y-10549868D01*
X8642490Y-10607011D01*
X8642490Y-10678439D01*
X8628204Y-10735582D01*
X8613918Y-10764153D01*
X8599632Y-10778439D01*
X8571061Y-10792725D01*
X8542490Y-10792725D01*
X8513918Y-10778439D01*
X8499632Y-10764153D01*
X8485347Y-10735582D01*
X8471061Y-10678439D01*
X8471061Y-10607011D01*
X8485347Y-10549868D01*
X8499632Y-10521296D01*
X8513918Y-10507011D01*
X8542490Y-10492725D01*
X8771061Y-10764153D02*
X8785347Y-10778439D01*
X8771061Y-10792725D01*
X8756775Y-10778439D01*
X8771061Y-10764153D01*
X8771061Y-10792725D01*
X8971061Y-10492725D02*
X8999632Y-10492725D01*
X9028204Y-10507011D01*
X9042490Y-10521296D01*
X9056775Y-10549868D01*
X9071061Y-10607011D01*
X9071061Y-10678439D01*
X9056775Y-10735582D01*
X9042490Y-10764153D01*
X9028204Y-10778439D01*
X8999632Y-10792725D01*
X8971061Y-10792725D01*
X8942490Y-10778439D01*
X8928204Y-10764153D01*
X8913918Y-10735582D01*
X8899632Y-10678439D01*
X8899632Y-10607011D01*
X8913918Y-10549868D01*
X8928204Y-10521296D01*
X8942490Y-10507011D01*
X8971061Y-10492725D01*
X9171061Y-10492725D02*
X9356775Y-10492725D01*
X9256775Y-10607011D01*
X9299632Y-10607011D01*
X9328204Y-10621296D01*
X9342490Y-10635582D01*
X9356775Y-10664153D01*
X9356775Y-10735582D01*
X9342490Y-10764153D01*
X9328204Y-10778439D01*
X9299632Y-10792725D01*
X9213918Y-10792725D01*
X9185347Y-10778439D01*
X9171061Y-10764153D01*
X9499632Y-10792725D02*
X9556775Y-10792725D01*
X9585347Y-10778439D01*
X9599632Y-10764153D01*
X9628204Y-10721296D01*
X9642490Y-10664153D01*
X9642490Y-10549868D01*
X9628204Y-10521296D01*
X9613918Y-10507011D01*
X9585347Y-10492725D01*
X9528204Y-10492725D01*
X9499632Y-10507011D01*
X9485347Y-10521296D01*
X9471061Y-10549868D01*
X9471061Y-10621296D01*
X9485347Y-10649868D01*
X9499632Y-10664153D01*
X9528204Y-10678439D01*
X9585347Y-10678439D01*
X9613918Y-10664153D01*
X9628204Y-10649868D01*
X9642490Y-10621296D01*
X9756775Y-10492725D02*
X9756775Y-10549868D01*
X9871061Y-10492725D02*
X9871061Y-10549868D01*
X10313918Y-10907011D02*
X10299632Y-10892725D01*
X10271061Y-10849868D01*
X10256775Y-10821296D01*
X10242490Y-10778439D01*
X10228204Y-10707011D01*
X10228204Y-10649868D01*
X10242490Y-10578439D01*
X10256775Y-10535582D01*
X10271061Y-10507011D01*
X10299632Y-10464153D01*
X10313918Y-10449868D01*
X10399632Y-10492725D02*
X10599632Y-10492725D01*
X10471061Y-10792725D01*
X10685347Y-10492725D02*
X10885347Y-10492725D01*
X10756775Y-10792725D01*
X11228204Y-10792725D02*
X11228204Y-10492725D01*
X11356775Y-10792725D02*
X11356775Y-10635582D01*
X11342489Y-10607011D01*
X11313918Y-10592725D01*
X11271061Y-10592725D01*
X11242489Y-10607011D01*
X11228204Y-10621296D01*
X11542489Y-10792725D02*
X11513918Y-10778439D01*
X11499632Y-10764153D01*
X11485347Y-10735582D01*
X11485347Y-10649868D01*
X11499632Y-10621296D01*
X11513918Y-10607011D01*
X11542489Y-10592725D01*
X11585347Y-10592725D01*
X11613918Y-10607011D01*
X11628204Y-10621296D01*
X11642489Y-10649868D01*
X11642489Y-10735582D01*
X11628204Y-10764153D01*
X11613918Y-10778439D01*
X11585347Y-10792725D01*
X11542489Y-10792725D01*
X11813918Y-10792725D02*
X11785347Y-10778439D01*
X11771061Y-10749868D01*
X11771061Y-10492725D01*
X12042489Y-10778439D02*
X12013918Y-10792725D01*
X11956775Y-10792725D01*
X11928204Y-10778439D01*
X11913918Y-10749868D01*
X11913918Y-10635582D01*
X11928204Y-10607011D01*
X11956775Y-10592725D01*
X12013918Y-10592725D01*
X12042489Y-10607011D01*
X12056775Y-10635582D01*
X12056775Y-10664153D01*
X11913918Y-10692725D01*
X12171061Y-10778439D02*
X12199632Y-10792725D01*
X12256775Y-10792725D01*
X12285347Y-10778439D01*
X12299632Y-10749868D01*
X12299632Y-10735582D01*
X12285347Y-10707011D01*
X12256775Y-10692725D01*
X12213918Y-10692725D01*
X12185347Y-10678439D01*
X12171061Y-10649868D01*
X12171061Y-10635582D01*
X12185347Y-10607011D01*
X12213918Y-10592725D01*
X12256775Y-10592725D01*
X12285347Y-10607011D01*
X12399632Y-10907011D02*
X12413918Y-10892725D01*
X12442489Y-10849868D01*
X12456775Y-10821296D01*
X12471061Y-10778439D01*
X12485347Y-10707011D01*
X12485347Y-10649868D01*
X12471061Y-10578439D01*
X12456775Y-10535582D01*
X12442489Y-10507011D01*
X12413918Y-10464153D01*
X12399632Y-10449868D01*
M02*
